<mxfile host="app.diagrams.net" modified="2024-04-10T00:01:56.902Z" agent="Mozilla/5.0 (Macintosh; Intel Mac OS X 10.15; rv:124.0) Gecko/20100101 Firefox/124.0" etag="q-LoHGEd5CDOXVuHyK2g" version="24.2.3" type="device">
  <diagram name="Page-1" id="Bbv_prq_7llTEKiuvUcu">
    <mxGraphModel dx="458" dy="273" grid="1" gridSize="10" guides="1" tooltips="1" connect="1" arrows="1" fold="1" page="1" pageScale="1" pageWidth="850" pageHeight="1100" math="0" shadow="0">
      <root>
        <mxCell id="0" />
        <mxCell id="1" parent="0" />
        <mxCell id="BjjsZNWAQK_SxkQAuNzU-67" value="" style="ellipse;whiteSpace=wrap;html=1;aspect=fixed;" vertex="1" parent="1">
          <mxGeometry x="440" y="520" width="10" height="10" as="geometry" />
        </mxCell>
        <mxCell id="BjjsZNWAQK_SxkQAuNzU-68" value="" style="ellipse;whiteSpace=wrap;html=1;aspect=fixed;" vertex="1" parent="1">
          <mxGeometry x="490" y="520" width="10" height="10" as="geometry" />
        </mxCell>
        <mxCell id="BjjsZNWAQK_SxkQAuNzU-69" value="" style="ellipse;whiteSpace=wrap;html=1;aspect=fixed;" vertex="1" parent="1">
          <mxGeometry x="540" y="520" width="10" height="10" as="geometry" />
        </mxCell>
        <mxCell id="BjjsZNWAQK_SxkQAuNzU-70" value="" style="ellipse;whiteSpace=wrap;html=1;aspect=fixed;" vertex="1" parent="1">
          <mxGeometry x="590" y="520" width="10" height="10" as="geometry" />
        </mxCell>
        <mxCell id="BjjsZNWAQK_SxkQAuNzU-71" value="" style="ellipse;whiteSpace=wrap;html=1;aspect=fixed;" vertex="1" parent="1">
          <mxGeometry x="440" y="570" width="10" height="10" as="geometry" />
        </mxCell>
        <mxCell id="BjjsZNWAQK_SxkQAuNzU-74" value="" style="ellipse;whiteSpace=wrap;html=1;aspect=fixed;" vertex="1" parent="1">
          <mxGeometry x="590" y="570" width="10" height="10" as="geometry" />
        </mxCell>
        <mxCell id="BjjsZNWAQK_SxkQAuNzU-75" value="" style="ellipse;whiteSpace=wrap;html=1;aspect=fixed;" vertex="1" parent="1">
          <mxGeometry x="440" y="620" width="10" height="10" as="geometry" />
        </mxCell>
        <mxCell id="BjjsZNWAQK_SxkQAuNzU-78" value="" style="ellipse;whiteSpace=wrap;html=1;aspect=fixed;" vertex="1" parent="1">
          <mxGeometry x="590" y="620" width="10" height="10" as="geometry" />
        </mxCell>
        <mxCell id="BjjsZNWAQK_SxkQAuNzU-79" value="" style="ellipse;whiteSpace=wrap;html=1;aspect=fixed;" vertex="1" parent="1">
          <mxGeometry x="440" y="670" width="10" height="10" as="geometry" />
        </mxCell>
        <mxCell id="BjjsZNWAQK_SxkQAuNzU-80" value="" style="ellipse;whiteSpace=wrap;html=1;aspect=fixed;" vertex="1" parent="1">
          <mxGeometry x="490" y="670" width="10" height="10" as="geometry" />
        </mxCell>
        <mxCell id="BjjsZNWAQK_SxkQAuNzU-81" value="" style="ellipse;whiteSpace=wrap;html=1;aspect=fixed;" vertex="1" parent="1">
          <mxGeometry x="540" y="670" width="10" height="10" as="geometry" />
        </mxCell>
        <mxCell id="BjjsZNWAQK_SxkQAuNzU-82" value="" style="ellipse;whiteSpace=wrap;html=1;aspect=fixed;" vertex="1" parent="1">
          <mxGeometry x="590" y="670" width="10" height="10" as="geometry" />
        </mxCell>
        <mxCell id="BjjsZNWAQK_SxkQAuNzU-83" value="" style="endArrow=none;html=1;rounded=0;exitX=1;exitY=0.5;exitDx=0;exitDy=0;entryX=0;entryY=0.5;entryDx=0;entryDy=0;" edge="1" parent="1" source="BjjsZNWAQK_SxkQAuNzU-67" target="BjjsZNWAQK_SxkQAuNzU-68">
          <mxGeometry width="50" height="50" relative="1" as="geometry">
            <mxPoint x="510" y="590" as="sourcePoint" />
            <mxPoint x="560" y="540" as="targetPoint" />
          </mxGeometry>
        </mxCell>
        <mxCell id="BjjsZNWAQK_SxkQAuNzU-84" value="" style="endArrow=none;html=1;rounded=0;exitX=1;exitY=0.5;exitDx=0;exitDy=0;entryX=0;entryY=0.5;entryDx=0;entryDy=0;" edge="1" parent="1">
          <mxGeometry width="50" height="50" relative="1" as="geometry">
            <mxPoint x="500" y="524.79" as="sourcePoint" />
            <mxPoint x="540" y="524.79" as="targetPoint" />
          </mxGeometry>
        </mxCell>
        <mxCell id="BjjsZNWAQK_SxkQAuNzU-85" value="" style="endArrow=none;html=1;rounded=0;exitX=1;exitY=0.5;exitDx=0;exitDy=0;entryX=0;entryY=0.5;entryDx=0;entryDy=0;" edge="1" parent="1">
          <mxGeometry width="50" height="50" relative="1" as="geometry">
            <mxPoint x="550" y="524.79" as="sourcePoint" />
            <mxPoint x="590" y="524.79" as="targetPoint" />
          </mxGeometry>
        </mxCell>
        <mxCell id="BjjsZNWAQK_SxkQAuNzU-86" value="" style="endArrow=none;html=1;rounded=0;exitX=1;exitY=0.5;exitDx=0;exitDy=0;entryX=0;entryY=0.5;entryDx=0;entryDy=0;" edge="1" parent="1">
          <mxGeometry width="50" height="50" relative="1" as="geometry">
            <mxPoint x="450" y="674.9" as="sourcePoint" />
            <mxPoint x="490" y="674.9" as="targetPoint" />
          </mxGeometry>
        </mxCell>
        <mxCell id="BjjsZNWAQK_SxkQAuNzU-87" value="" style="endArrow=none;html=1;rounded=0;exitX=1;exitY=0.5;exitDx=0;exitDy=0;entryX=0;entryY=0.5;entryDx=0;entryDy=0;" edge="1" parent="1">
          <mxGeometry width="50" height="50" relative="1" as="geometry">
            <mxPoint x="500" y="674.6899999999999" as="sourcePoint" />
            <mxPoint x="540" y="674.6899999999999" as="targetPoint" />
          </mxGeometry>
        </mxCell>
        <mxCell id="BjjsZNWAQK_SxkQAuNzU-88" value="" style="endArrow=none;html=1;rounded=0;exitX=1;exitY=0.5;exitDx=0;exitDy=0;entryX=0;entryY=0.5;entryDx=0;entryDy=0;" edge="1" parent="1">
          <mxGeometry width="50" height="50" relative="1" as="geometry">
            <mxPoint x="550" y="674.6899999999999" as="sourcePoint" />
            <mxPoint x="590" y="674.6899999999999" as="targetPoint" />
          </mxGeometry>
        </mxCell>
        <mxCell id="BjjsZNWAQK_SxkQAuNzU-89" value="" style="endArrow=none;html=1;rounded=0;exitX=0.5;exitY=0;exitDx=0;exitDy=0;entryX=0.5;entryY=1;entryDx=0;entryDy=0;" edge="1" parent="1" source="BjjsZNWAQK_SxkQAuNzU-79" target="BjjsZNWAQK_SxkQAuNzU-75">
          <mxGeometry width="50" height="50" relative="1" as="geometry">
            <mxPoint x="520" y="610" as="sourcePoint" />
            <mxPoint x="570" y="560" as="targetPoint" />
          </mxGeometry>
        </mxCell>
        <mxCell id="BjjsZNWAQK_SxkQAuNzU-90" value="" style="endArrow=none;html=1;rounded=0;exitX=0.5;exitY=0;exitDx=0;exitDy=0;entryX=0.5;entryY=1;entryDx=0;entryDy=0;" edge="1" parent="1">
          <mxGeometry width="50" height="50" relative="1" as="geometry">
            <mxPoint x="444.79" y="620" as="sourcePoint" />
            <mxPoint x="444.79" y="580" as="targetPoint" />
          </mxGeometry>
        </mxCell>
        <mxCell id="BjjsZNWAQK_SxkQAuNzU-91" value="" style="endArrow=none;html=1;rounded=0;exitX=0.5;exitY=0;exitDx=0;exitDy=0;entryX=0.5;entryY=1;entryDx=0;entryDy=0;" edge="1" parent="1">
          <mxGeometry width="50" height="50" relative="1" as="geometry">
            <mxPoint x="444.79" y="570" as="sourcePoint" />
            <mxPoint x="444.79" y="530" as="targetPoint" />
          </mxGeometry>
        </mxCell>
        <mxCell id="BjjsZNWAQK_SxkQAuNzU-92" value="" style="endArrow=none;html=1;rounded=0;exitX=0.5;exitY=0;exitDx=0;exitDy=0;entryX=0.5;entryY=1;entryDx=0;entryDy=0;" edge="1" parent="1">
          <mxGeometry width="50" height="50" relative="1" as="geometry">
            <mxPoint x="594.9" y="670" as="sourcePoint" />
            <mxPoint x="594.9" y="630" as="targetPoint" />
          </mxGeometry>
        </mxCell>
        <mxCell id="BjjsZNWAQK_SxkQAuNzU-93" value="" style="endArrow=none;html=1;rounded=0;exitX=0.5;exitY=0;exitDx=0;exitDy=0;entryX=0.5;entryY=1;entryDx=0;entryDy=0;" edge="1" parent="1">
          <mxGeometry width="50" height="50" relative="1" as="geometry">
            <mxPoint x="594.69" y="620" as="sourcePoint" />
            <mxPoint x="594.69" y="580" as="targetPoint" />
          </mxGeometry>
        </mxCell>
        <mxCell id="BjjsZNWAQK_SxkQAuNzU-94" value="" style="endArrow=none;html=1;rounded=0;exitX=0.5;exitY=0;exitDx=0;exitDy=0;entryX=0.5;entryY=1;entryDx=0;entryDy=0;" edge="1" parent="1">
          <mxGeometry width="50" height="50" relative="1" as="geometry">
            <mxPoint x="594.69" y="570" as="sourcePoint" />
            <mxPoint x="594.69" y="530" as="targetPoint" />
          </mxGeometry>
        </mxCell>
      </root>
    </mxGraphModel>
  </diagram>
</mxfile>
